<svg xmlns="http://www.w3.org/2000/svg" viewBox="0 0 1400 850" role="img" aria-labelledby="title desc"><title id="title">Eco Solutions integrated technology and renewable energy solutions</title><desc id="desc">A clean corporate illustration showing a home with rooftop solar panels, a geyser, laptop, compact printer and Wi-Fi router.</desc><defs><linearGradient id="bg" x1="0" y1="0" x2="1" y2="1"><stop offset="0" stop-color="#eaf7ef"/><stop offset=".55" stop-color="#d5eadb"/><stop offset="1" stop-color="#f8f3df"/></linearGradient><linearGradient id="green" x1="0" y1="0" x2="1" y2="1"><stop stop-color="#075b36"/><stop offset="1" stop-color="#15965a"/></linearGradient><linearGradient id="gold" x1="0" y1="0" x2="1" y2="1"><stop stop-color="#b98724"/><stop offset="1" stop-color="#e1bd5b"/></linearGradient><filter id="shadow" x="-30%" y="-30%" width="160%" height="160%"><feDropShadow dx="0" dy="14" stdDeviation="18" flood-opacity=".18"/></filter></defs><rect width="1400" height="850" rx="34" fill="url(#bg)"/><circle cx="1170" cy="130" r="72" fill="#f0c95d" opacity=".55"/><circle cx="1170" cy="130" r="108" fill="none" stroke="#c89b35" stroke-width="3" opacity=".25"/><path d="M0 650 Q300 560 610 650 T1400 590 V850 H0Z" fill="#b9d9b7"/><path d="M0 700 Q350 610 690 710 T1400 650 V850 H0Z" fill="#8fbd8e" opacity=".7"/><g filter="url(#shadow)"><path d="M85 485 L350 275 L620 485 V690 H85Z" fill="#fff"/><path d="M50 475 L350 235 L655 475 L615 525 L350 315 L90 525Z" fill="#075b36"/><rect x="185" y="500" width="105" height="190" rx="8" fill="#dfeee5"/><rect x="415" y="510" width="120" height="90" rx="8" fill="#9fd1dd" stroke="#fff" stroke-width="10"/><g transform="rotate(-20 360 355)"><rect x="190" y="315" width="315" height="115" rx="5" fill="#183e52" stroke="#fff" stroke-width="7"/><path d="M235 325v100M285 325v100M335 325v100M385 325v100M435 325v100M190 355h315M190 390h315" stroke="#75a7b8" stroke-width="2"/></g><path d="M600 670h140" stroke="#075b36" stroke-width="16" stroke-linecap="round"/><path d="M670 670v-105" stroke="#075b36" stroke-width="12"/><rect x="615" y="540" width="110" height="85" rx="40" fill="#e9ece7" stroke="#075b36" stroke-width="8"/><circle cx="670" cy="585" r="20" fill="#c89b35"/></g><g filter="url(#shadow)"><rect x="750" y="220" width="270" height="185" rx="16" fill="#202927"/><rect x="770" y="240" width="230" height="145" rx="8" fill="#0b5d35"/><path d="M800 340h160" stroke="#b8e7c7" stroke-width="8" stroke-linecap="round"/><path d="M800 310h105" stroke="#d4b154" stroke-width="8" stroke-linecap="round"/><path d="M710 410h350l65 38H645Z" fill="#434c49"/><path d="M810 430h150" stroke="#8c9892" stroke-width="6"/></g><g filter="url(#shadow)"><rect x="1050" y="300" width="245" height="210" rx="24" fill="#f8faf7" stroke="#6c7c74" stroke-width="5"/><rect x="1090" y="355" width="165" height="62" rx="10" fill="#28332f"/><rect x="1110" y="372" width="125" height="22" rx="5" fill="#0b5d35"/><path d="M1115 500h115v95h-115z" fill="#fff" stroke="#b8c8bf" stroke-width="5"/><path d="M1130 525h85M1130 548h65" stroke="#b7c5be" stroke-width="6"/></g><g filter="url(#shadow)"><rect x="1040" y="615" width="205" height="125" rx="28" fill="#f7f9f6" stroke="#075b36" stroke-width="6"/><rect x="1080" y="640" width="125" height="45" rx="10" fill="#075b36"/><circle cx="1142" cy="662" r="10" fill="#b9e7c7"/><path d="M1090 610 Q1140 555 1190 610M1070 585 Q1140 505 1210 585" fill="none" stroke="#c89b35" stroke-width="8" stroke-linecap="round"/></g><g><rect x="55" y="65" width="515" height="110" rx="20" fill="#075b36"/><text x="90" y="112" font-family="Arial,Helvetica,sans-serif" font-size="28" font-weight="700" fill="#bde7ca" letter-spacing="3">ECO SOLUTIONS</text><text x="90" y="151" font-family="Arial,Helvetica,sans-serif" font-size="22" fill="#fff">ENERGY • ICT • CONNECTIVITY</text></g><g font-family="Arial,Helvetica,sans-serif" font-weight="700"><text x="95" y="780" font-size="22" fill="#075b36">SOLAR HOME</text><text x="675" y="780" font-size="22" fill="#075b36">LAPTOP</text><text x="1060" y="780" font-size="22" fill="#075b36">PRINTING</text><text x="1010" y="820" font-size="22" fill="#075b36">WI-FI • HOT WATER • CLEAN ENERGY</text></g></svg>